<svg width="11" height="19" viewBox="0 0 11 19" fill="none" xmlns="http://www.w3.org/2000/svg">
<path d="M3.61962 6.42622V13.3056C3.62745 13.8086 3.82982 14.2884 4.18307 14.6413C4.53632 14.9942 5.01211 15.1921 5.50777 15.1921C6.00344 15.1921 6.47923 14.9942 6.83248 14.6413C7.18572 14.2884 7.3881 13.8086 7.39593 13.3056L7.40205 4.28852C7.40719 3.85856 7.3282 3.43184 7.16965 3.03309C7.0111 2.63435 6.77615 2.27151 6.47842 1.96562C6.18069 1.65973 5.8261 1.41686 5.43521 1.25111C5.04431 1.08535 4.62489 1 4.20126 1C3.77763 1 3.35821 1.08535 2.96732 1.25111C2.57643 1.41686 2.22184 1.65973 1.92411 1.96562C1.62637 2.27151 1.39142 2.63435 1.23288 3.03309C1.07433 3.43184 0.995332 3.85856 1.00047 4.28852V13.3663C0.991841 13.9716 1.10185 14.5727 1.3241 15.1344C1.54635 15.6962 1.8764 16.2076 2.29508 16.6387C2.71376 17.0699 3.2127 17.4123 3.7629 17.646C4.31309 17.8797 4.90357 18 5.5 18C6.09643 18 6.68691 17.8797 7.2371 17.646C7.7873 17.4123 8.28624 17.0699 8.70492 16.6387C9.1236 16.2076 9.45365 15.6962 9.6759 15.1344C9.89815 14.5727 10.0082 13.9716 9.99953 13.3663V4.88344" stroke="white" stroke-width="1.5" stroke-miterlimit="10" stroke-linecap="round"/>
</svg>
