<svg width="28" height="28" viewBox="0 0 28 28" fill="none" xmlns="http://www.w3.org/2000/svg">
<path d="M26.0345 17.6186C26.0817 17.5489 26.1272 17.4766 26.1739 17.4088C27.3618 15.6028 27.9975 13.4761 27.9999 11.2995C28.0196 5.06073 22.8737 0 16.5104 0C10.9604 0 6.33039 3.86324 5.24569 8.99182C5.08297 9.75189 5.0006 10.5277 5 11.3057C5 17.5508 9.94813 22.7472 16.3114 22.7472C17.323 22.7472 18.686 22.4362 19.4335 22.2264C20.181 22.0165 20.9217 21.7394 21.1134 21.6647C21.305 21.5899 21.6047 21.5133 21.8437 21.5836L26.5989 22.9897C26.6407 23.0023 26.6851 23.0034 26.7274 22.9927C26.7697 22.982 26.8085 22.96 26.8398 22.9289C26.871 22.8978 26.8936 22.8588 26.9053 22.8158C26.9169 22.7728 26.9172 22.7275 26.906 22.6844L25.8176 18.4442C25.7421 18.13 25.7323 18.071 26.0345 17.6186Z" fill="white"/>
<path d="M16.7049 24.1081C16.2467 24.1822 15.7839 24.2234 15.3199 24.2315C12.7934 24.2315 10.4074 23.557 8.47218 22.2923C7.23426 21.5238 6.1597 20.5142 5.31092 19.322C3.75798 17.24 2.91124 14.5938 2.91124 11.8246C2.91124 11.6361 2.91779 11.4549 2.92434 11.273C2.9267 11.2194 2.91267 11.1663 2.88416 11.121C2.85564 11.0757 2.81403 11.0404 2.76498 11.0199C2.71593 10.9993 2.66181 10.9946 2.61 11.0062C2.55818 11.0179 2.51117 11.0454 2.47537 11.0851C1.04958 12.6629 0.187665 14.6785 0.0272729 16.8098C-0.133119 18.9412 0.417264 21.0654 1.59052 22.8433C1.7376 23.0704 1.82096 23.2456 1.79536 23.3625L0.956366 27.7143C0.948624 27.7557 0.951745 27.7984 0.965417 27.8382C0.979089 27.878 1.00283 27.9134 1.03428 27.941C1.06574 27.9686 1.10379 27.9874 1.14466 27.9955C1.18553 28.0036 1.22777 28.0007 1.26719 27.9871L5.31628 26.5273C5.43907 26.4782 5.57023 26.4541 5.70225 26.4564C5.83426 26.4586 5.96454 26.4872 6.0856 26.5405C7.29735 27.0223 8.63772 27.3186 9.97809 27.3186C12.5581 27.3272 15.0433 26.3358 16.9229 24.5483C16.9617 24.51 16.9874 24.4603 16.9964 24.4062C17.0055 24.3522 16.9972 24.2966 16.973 24.2476C16.9487 24.1986 16.9097 24.1587 16.8615 24.1336C16.8133 24.1085 16.7585 24.0996 16.7049 24.1081Z" fill="white"/>
</svg>
