<svg width="15" height="20" viewBox="0 0 15 20" fill="none" xmlns="http://www.w3.org/2000/svg">
<path d="M14.4492 3.82738L11.1719 0.550674C10.8203 0.19918 10.3438 0 9.84766 0H1.875C0.839844 0.00390549 0 0.843585 0 1.87854V18.1254C0 19.1603 0.839844 20 1.875 20H13.125C14.1602 20 15 19.1603 15 18.1254V5.15524C15 4.65925 14.8008 4.17887 14.4492 3.82738ZM12.9727 5.00293H10V2.03085L12.9727 5.00293ZM1.875 18.1254V1.87854H8.125V5.94025C8.125 6.45968 8.54297 6.87756 9.0625 6.87756H13.125V18.1254H1.875Z" fill="#B9B9B9"/>
<path d="M14.4492 3.82738L11.1719 0.550674C10.8203 0.19918 10.3438 0 9.84766 0H1.875C0.839844 0.00390549 0 0.843585 0 1.87854V18.1254C0 19.1603 0.839844 20 1.875 20H13.125C14.1602 20 15 19.1603 15 18.1254V5.15524C15 4.65925 14.8008 4.17887 14.4492 3.82738ZM12.9727 5.00293H10V2.03085L12.9727 5.00293ZM1.875 18.1254V1.87854H8.125V5.94025C8.125 6.45968 8.54297 6.87756 9.0625 6.87756H13.125V18.1254H1.875Z" stroke="#B9B9B9"/>
</svg>
