<svg width="20" height="13" viewBox="0 0 20 13" fill="none" xmlns="http://www.w3.org/2000/svg">
<path d="M19 2.29412H1C0.734784 2.29412 0.48043 2.17327 0.292893 1.95815C0.105357 1.74304 0 1.45128 0 1.14706C0 0.84284 0.105357 0.551081 0.292893 0.335966C0.48043 0.12085 0.734784 0 1 0H19C19.2652 0 19.5196 0.12085 19.7071 0.335966C19.8946 0.551081 20 0.84284 20 1.14706C20 1.45128 19.8946 1.74304 19.7071 1.95815C19.5196 2.17327 19.2652 2.29412 19 2.29412ZM15.6667 7.64706H4.33333C4.06812 7.64706 3.81376 7.52621 3.62623 7.31109C3.43869 7.09598 3.33333 6.80422 3.33333 6.5C3.33333 6.19578 3.43869 5.90402 3.62623 5.68891C3.81376 5.47379 4.06812 5.35294 4.33333 5.35294H15.6667C15.9319 5.35294 16.1862 5.47379 16.3738 5.68891C16.5613 5.90402 16.6667 6.19578 16.6667 6.5C16.6667 6.80422 16.5613 7.09598 16.3738 7.31109C16.1862 7.52621 15.9319 7.64706 15.6667 7.64706ZM11.6667 13H8.33333C8.06812 13 7.81376 12.8791 7.62623 12.664C7.43869 12.4489 7.33333 12.1572 7.33333 11.8529C7.33333 11.5487 7.43869 11.257 7.62623 11.0418C7.81376 10.8267 8.06812 10.7059 8.33333 10.7059H11.6667C11.9319 10.7059 12.1862 10.8267 12.3738 11.0418C12.5613 11.257 12.6667 11.5487 12.6667 11.8529C12.6667 12.1572 12.5613 12.4489 12.3738 12.664C12.1862 12.8791 11.9319 13 11.6667 13Z" fill="#626262"/>
</svg>
