<svg width="14" height="14" viewBox="0 0 14 14" fill="none" xmlns="http://www.w3.org/2000/svg">
<circle cx="7" cy="7" r="7" fill="url(#paint0_linear_1158_39)"/>
<g clip-path="url(#clip0_1158_39)">
<g filter="url(#filter0_d_1158_39)">
<path d="M7.00019 10.75L6.82441 10.6328C5.98886 10.0748 4.93164 9.44414 4.14863 8.51719C3.32343 7.54062 2.92753 6.5377 2.93769 5.45078C2.95 4.23711 3.92324 3.25 5.10722 3.25C6.04687 3.25 6.67168 3.79687 7.00019 4.1916C7.32871 3.79687 7.95351 3.25 8.89316 3.25C10.0771 3.25 11.0504 4.23711 11.0627 5.4502C11.0736 6.5377 10.6777 7.54004 9.85175 8.5166C9.06875 9.44414 8.01152 10.0748 7.17597 10.6328L7.00019 10.75Z" fill="url(#paint1_linear_1158_39)"/>
</g>
</g>
<defs>
<filter id="filter0_d_1158_39" x="1.9375" y="3.25" width="10.125" height="9.5" filterUnits="userSpaceOnUse" color-interpolation-filters="sRGB">
<feFlood flood-opacity="0" result="BackgroundImageFix"/>
<feColorMatrix in="SourceAlpha" type="matrix" values="0 0 0 0 0 0 0 0 0 0 0 0 0 0 0 0 0 0 127 0" result="hardAlpha"/>
<feOffset dy="1"/>
<feGaussianBlur stdDeviation="0.5"/>
<feComposite in2="hardAlpha" operator="out"/>
<feColorMatrix type="matrix" values="0 0 0 0 0 0 0 0 0 0 0 0 0 0 0 0 0 0 0.25 0"/>
<feBlend mode="normal" in2="BackgroundImageFix" result="effect1_dropShadow_1158_39"/>
<feBlend mode="normal" in="SourceGraphic" in2="effect1_dropShadow_1158_39" result="shape"/>
</filter>
<linearGradient id="paint0_linear_1158_39" x1="7" y1="0" x2="7" y2="14" gradientUnits="userSpaceOnUse">
<stop stop-color="#F2E144"/>
<stop offset="1" stop-color="#B8A811"/>
</linearGradient>
<linearGradient id="paint1_linear_1158_39" x1="7" y1="3.25" x2="7.00021" y2="10.75" gradientUnits="userSpaceOnUse">
<stop stop-color="#F33737"/>
<stop offset="0.454566" stop-color="#B70101"/>
<stop offset="0.834149" stop-color="#990808"/>
<stop offset="0.975" stop-color="#990808"/>
</linearGradient>
<clipPath id="clip0_1158_39">
<rect width="10" height="10" fill="white" transform="translate(2 2)"/>
</clipPath>
</defs>
</svg>
