<svg width="14" height="14" viewBox="0 0 14 14" fill="none" xmlns="http://www.w3.org/2000/svg">
<circle cx="7" cy="7" r="7" fill="url(#paint0_linear_1158_38)"/>
<g clip-path="url(#clip0_1158_38)">
<g filter="url(#filter0_d_1158_38)">
<path d="M8.89316 3.75C9.79168 3.75 10.5531 4.50488 10.5627 5.45522L10.5627 5.45527C10.5722 6.40225 10.2329 7.29173 9.46999 8.19371L9.46969 8.19407C8.84113 8.93865 8.02255 9.47675 7.25088 9.98402C7.16666 10.0394 7.08299 10.0944 7.00019 10.1492C6.91726 10.0943 6.83346 10.0392 6.74909 9.98375C5.97753 9.47656 5.15907 8.93855 4.53059 8.19454L4.53054 8.19447C3.76841 7.29254 3.42889 6.40235 3.43767 5.45572C3.44738 4.50475 4.20881 3.75 5.10722 3.75C5.83528 3.75 6.33283 4.17135 6.61588 4.51145L7.00019 4.97322L7.3845 4.51145C7.66755 4.17135 8.1651 3.75 8.89316 3.75Z" stroke="#272727" stroke-opacity="0.57" shape-rendering="crispEdges"/>
</g>
</g>
<defs>
<filter id="filter0_d_1158_38" x="1.9375" y="3.25" width="10.125" height="9.5" filterUnits="userSpaceOnUse" color-interpolation-filters="sRGB">
<feFlood flood-opacity="0" result="BackgroundImageFix"/>
<feColorMatrix in="SourceAlpha" type="matrix" values="0 0 0 0 0 0 0 0 0 0 0 0 0 0 0 0 0 0 127 0" result="hardAlpha"/>
<feOffset dy="1"/>
<feGaussianBlur stdDeviation="0.5"/>
<feComposite in2="hardAlpha" operator="out"/>
<feColorMatrix type="matrix" values="0 0 0 0 0 0 0 0 0 0 0 0 0 0 0 0 0 0 0.25 0"/>
<feBlend mode="normal" in2="BackgroundImageFix" result="effect1_dropShadow_1158_38"/>
<feBlend mode="normal" in="SourceGraphic" in2="effect1_dropShadow_1158_38" result="shape"/>
</filter>
<linearGradient id="paint0_linear_1158_38" x1="7" y1="0" x2="7" y2="14" gradientUnits="userSpaceOnUse">
<stop stop-color="#F2E144"/>
<stop offset="1" stop-color="#B8A811"/>
</linearGradient>
<clipPath id="clip0_1158_38">
<rect width="10" height="10" fill="white" transform="translate(2 2)"/>
</clipPath>
</defs>
</svg>
