<svg width="10" height="10" viewBox="0 0 10 10" fill="none" xmlns="http://www.w3.org/2000/svg">
<g clip-path="url(#clip0_1156_14)">
<g filter="url(#filter0_d_1156_14)">
<path d="M5.00019 8.75L4.82441 8.63281C3.98886 8.0748 2.93164 7.44414 2.14863 6.51719C1.32343 5.54062 0.927534 4.5377 0.93769 3.45078C0.949995 2.23711 1.92324 1.25 3.10722 1.25C4.04687 1.25 4.67168 1.79687 5.00019 2.1916C5.32871 1.79687 5.95351 1.25 6.89316 1.25C8.07714 1.25 9.05039 2.23711 9.06269 3.4502C9.07363 4.5377 8.67773 5.54004 7.85175 6.5166C7.06875 7.44414 6.01152 8.0748 5.17597 8.63281L5.00019 8.75Z" fill="url(#paint0_linear_1156_14)"/>
</g>
</g>
<defs>
<filter id="filter0_d_1156_14" x="-0.0625" y="1.25" width="10.125" height="9.5" filterUnits="userSpaceOnUse" color-interpolation-filters="sRGB">
<feFlood flood-opacity="0" result="BackgroundImageFix"/>
<feColorMatrix in="SourceAlpha" type="matrix" values="0 0 0 0 0 0 0 0 0 0 0 0 0 0 0 0 0 0 127 0" result="hardAlpha"/>
<feOffset dy="1"/>
<feGaussianBlur stdDeviation="0.5"/>
<feComposite in2="hardAlpha" operator="out"/>
<feColorMatrix type="matrix" values="0 0 0 0 0 0 0 0 0 0 0 0 0 0 0 0 0 0 0.25 0"/>
<feBlend mode="normal" in2="BackgroundImageFix" result="effect1_dropShadow_1156_14"/>
<feBlend mode="normal" in="SourceGraphic" in2="effect1_dropShadow_1156_14" result="shape"/>
</filter>
<linearGradient id="paint0_linear_1156_14" x1="5" y1="1.25" x2="5.00021" y2="8.75" gradientUnits="userSpaceOnUse">
<stop stop-color="#F33737"/>
<stop offset="0.454566" stop-color="#B70101"/>
<stop offset="0.834149" stop-color="#990808"/>
<stop offset="0.975" stop-color="#990808"/>
</linearGradient>
<clipPath id="clip0_1156_14">
<rect width="10" height="10" fill="white"/>
</clipPath>
</defs>
</svg>
