<svg width="29" height="30" viewBox="0 0 29 30" fill="none" xmlns="http://www.w3.org/2000/svg">
<g filter="url(#filter0_d_1237_48)">
<circle cx="14.5" cy="11.4791" r="10.5" fill="#D9D9D9" fill-opacity="0.78" shape-rendering="crispEdges"/>
</g>
<g clip-path="url(#clip0_1237_48)">
<path d="M17.7503 7.0428C17.7503 7.0428 18.5883 6.87648 15.903 6.15696C14.9413 5.89927 13.9248 5.93255 12.982 6.25258C12.0392 6.57262 11.2125 7.16503 10.6064 7.95492C10.0003 8.7448 9.642 9.69668 9.57689 10.6902C9.51177 11.6837 9.74272 12.6742 10.2405 13.5364C10.7383 14.3986 11.4807 15.0939 12.3736 15.5343C13.2666 15.9746 14.2701 16.1403 15.2572 16.0103C16.2443 15.8804 17.1707 15.4606 17.9192 14.8042C18.6678 14.1477 19.2049 13.284 19.4626 12.3223" stroke="#137C67" stroke-width="2" stroke-miterlimit="10" stroke-linecap="round"/>
<path d="M16.522 3.84729L18.3018 6.92997L15.2191 8.70975" stroke="#137C67" stroke-width="2" stroke-linecap="round" stroke-linejoin="round"/>
</g>
<defs>
<filter id="filter0_d_1237_48" x="0" y="0.979126" width="29" height="29" filterUnits="userSpaceOnUse" color-interpolation-filters="sRGB">
<feFlood flood-opacity="0" result="BackgroundImageFix"/>
<feColorMatrix in="SourceAlpha" type="matrix" values="0 0 0 0 0 0 0 0 0 0 0 0 0 0 0 0 0 0 127 0" result="hardAlpha"/>
<feOffset dy="4"/>
<feGaussianBlur stdDeviation="2"/>
<feComposite in2="hardAlpha" operator="out"/>
<feColorMatrix type="matrix" values="0 0 0 0 0 0 0 0 0 0 0 0 0 0 0 0 0 0 0.25 0"/>
<feBlend mode="normal" in2="BackgroundImageFix" result="effect1_dropShadow_1237_48"/>
<feBlend mode="normal" in="SourceGraphic" in2="effect1_dropShadow_1237_48" result="shape"/>
</filter>
<clipPath id="clip0_1237_48">
<rect width="16.1088" height="16.1088" fill="white" transform="translate(9.21436) rotate(15)"/>
</clipPath>
</defs>
</svg>
