<svg width="17" height="17" viewBox="0 0 17 17" fill="none" xmlns="http://www.w3.org/2000/svg">
<path d="M8.5 0.78125C4.24393 0.78125 0.78125 4.2443 0.78125 8.5C0.78125 12.7624 4.23762 16.2188 8.5 16.2188C12.7561 16.2188 16.2188 12.7561 16.2188 8.5C16.2188 4.23725 12.7628 0.78125 8.5 0.78125ZM11.9883 8.9082C11.9883 9.59812 11.7837 10.2725 11.4004 10.8462C11.0171 11.4198 10.4723 11.8669 9.83491 12.131C9.19751 12.395 8.49613 12.4641 7.81947 12.3295C7.14281 12.1949 6.52126 11.8626 6.03341 11.3748C5.54557 10.8869 5.21334 10.2654 5.07875 9.58873C4.94415 8.91207 5.01323 8.2107 5.27725 7.5733C5.54127 6.9359 5.98837 6.3911 6.56201 6.0078C7.13566 5.62451 7.81008 5.41992 8.5 5.41992H8.65623L7.76561 4.5293L8.5 3.79453L10.7191 6.01367L8.5 8.23281L7.76523 7.49805L8.80133 6.46195C8.71227 6.45898 8.61133 6.45898 8.5 6.45898C8.01559 6.45898 7.54206 6.60263 7.13929 6.87175C6.73652 7.14088 6.42259 7.52339 6.23722 7.97093C6.05184 8.41846 6.00334 8.91092 6.09784 9.38602C6.19235 9.86112 6.42561 10.2975 6.76814 10.6401C7.11067 10.9826 7.54708 11.2159 8.02218 11.3104C8.49728 11.4049 8.98974 11.3564 9.43728 11.171C9.88481 10.9856 10.2673 10.6717 10.5365 10.2689C10.8056 9.86614 10.9492 9.39261 10.9492 8.9082V8.38867H11.9883V8.9082Z" fill="#3B3B3B"/>
</svg>
