<svg width="22" height="20" viewBox="0 0 22 20" fill="none" xmlns="http://www.w3.org/2000/svg">
<path fill-rule="evenodd" clip-rule="evenodd" d="M12.3906 0.0454333C10.8292 -0.126625 9.25009 0.193146 7.91661 0.95142C6.67533 1.65727 5.71674 2.70337 5.17634 3.9349C4.50112 4.00251 3.84351 4.17729 3.23359 4.45181C2.5495 4.75974 1.93881 5.18713 1.43642 5.7096C0.421785 6.76477 -0.090209 8.14316 0.0130695 9.54151C0.116348 10.9399 0.82644 12.2437 1.98713 13.166C2.91517 13.9035 4.07047 14.349 5.28257 14.4499C4.90442 13.5344 5.14806 12.4988 5.91267 11.8037L9.05552 8.94651C10.1295 7.97021 11.8707 7.97021 12.9446 8.94651L16.0875 11.8037C16.8553 12.5017 17.0978 13.5433 16.7128 14.4616H16.9408H16.9455C18.1897 14.4549 19.3881 14.0335 20.3137 13.2774C21.2392 12.5213 21.8277 11.4829 21.9678 10.3588C22.1076 9.23477 21.7894 8.10309 21.073 7.17806C20.4158 6.3292 19.4653 5.70844 18.3772 5.41151C18.1801 4.08981 17.5227 2.85734 16.497 1.89691C15.4014 0.870979 13.9521 0.217491 12.3906 0.0454333ZM11.5556 10.2092C11.2488 9.93026 10.7513 9.93026 10.4444 10.2092L7.30157 13.0664C7.07686 13.2706 7.00963 13.5779 7.13124 13.8448C7.25287 14.1117 7.53936 14.2857 7.85715 14.2857H9.82143V18.9286C9.82143 19.5203 10.3491 20 11 20C11.6509 20 12.1786 19.5203 12.1786 18.9286V14.2857H14.1429C14.4607 14.2857 14.7471 14.1117 14.8688 13.8448C14.9904 13.5779 14.9232 13.2706 14.6984 13.0664L11.5556 10.2092Z" fill="#CBCBCB"/>
</svg>
